<svg viewBox="0 0 319.73 115.18" xmlns="http://www.w3.org/2000/svg" xmlns:xlink="http://www.w3.org/1999/xlink">
 <defs>
  <clipPath id="a">
   <rect width="316.11" height="115.18" style="fill:none" x="3.63"/>
  </clipPath>
  <clipPath id="c">
   <rect width="73.89" height="66.71" style="fill:none" x="12.93" y="7.67"/>
  </clipPath>
 </defs>
 <g style="clip-path:url(#a)">
  <polygon points="15.99 89.61 15.99 91.89 20.11 91.89 20.11 93.8 15.99 93.8 15.99 97.94 12.9 97.94 12.9 87.33 22.34 87.33 22.34 89.61 15.99 89.61" style="fill:#8c827a"/>
  <g style="clip-path:url(#a)">
   <path d="M29.93,98.29c-3.55,0-5.86-2.28-5.86-5.08V92.06c0-2.81,2.31-5.08,5.86-5.08s5.86,2.27,5.86,5.08v1.15c0,2.8-2.31,5.08-5.86,5.08m2.71-6.35a2.55,2.55,0,0,0-2.71-2.68,2.53,2.53,0,0,0-2.7,2.68v1.38A2.54,2.54,0,0,0,29.93,96a2.55,2.55,0,0,0,2.71-2.68Z" style="fill:#8c827a"/>
   <path d="M43.78,98.29c-3.79,0-5.54-2-5.54-4.46v-6.5h3.11V93.7c0,1.4.87,2.25,2.59,2.25s2.52-.85,2.52-2.25V87.33h2.83v6.5c0,2.45-1.69,4.46-5.51,4.46" style="fill:#8c827a"/>
   <polygon points="60.72 97.94 55.91 92.46 55.16 91.55 55.16 97.94 52.25 97.94 52.25 87.33 54.94 87.33 59.67 92.83 60.4 93.73 60.4 87.33 63.32 87.33 63.32 97.94 60.72 97.94" style="fill:#8c827a"/>
   <path d="M72,97.94H66.44V87.33H72c3.61,0,5.72,2.09,5.72,4.69v1.27c0,2.58-2.11,4.65-5.72,4.65m2.58-6a2.43,2.43,0,0,0-2.74-2.46H69.52v6.24H71.8a2.44,2.44,0,0,0,2.74-2.49Z" style="fill:#8c827a"/>
   <polygon points="80.29 97.94 80.29 87.33 89.89 87.33 89.89 89.63 83.37 89.63 83.37 91.62 88.02 91.62 88.02 93.4 83.37 93.4 83.37 95.52 89.89 95.52 89.89 97.94 80.29 97.94" style="fill:#8c827a"/>
   <path d="M98.16,97.94H92.64V87.33h5.52c3.62,0,5.72,2.09,5.72,4.69v1.27c0,2.58-2.1,4.65-5.72,4.65m2.58-6A2.43,2.43,0,0,0,98,89.52H95.73v6.24H98a2.44,2.44,0,0,0,2.74-2.49Z" style="fill:#8c827a"/>
   <polygon points="101.55 15.99 101.55 36.71 110.75 36.71 110.75 44.71 101.55 44.71 101.55 74.53 92.84 74.53 92.84 7.89 113.55 7.89 113.55 15.99 101.55 15.99" style="fill:#8c827a"/>
   <path d="M138.57,74.83c-3.21,0-4.51-4-4.51-8.81V50.11c0-2.3-1.2-4.1-3.5-4.1h-3.9V74.53h-8.81V7.89h13.51c5.71,0,11,3.1,11,11.81v14c0,4-1.7,6.91-5.1,8.51a8.92,8.92,0,0,1,5.3,8.5V65.52a13,13,0,0,0,1.5,6.81v2.5Zm-4.91-55c0-2.61-.9-3.81-2.8-3.81h-4.2V38.41h3.8c2.1,0,3.2-1.3,3.2-4.11Z" style="fill:#8c827a"/>
   <rect width="8.81" height="66.64" style="fill:#8c827a" x="150.37" y="7.89"/>
   <polygon points="168.58 74.53 168.58 7.89 189.9 7.89 189.9 16.09 177.29 16.09 177.29 36.2 186.09 36.2 186.09 44.11 177.29 44.11 177.29 66.22 189.9 66.22 189.9 74.53 168.58 74.53" style="fill:#8c827a"/>
   <polygon points="215.61 74.53 206.2 42.61 203.5 32.7 203.5 74.53 195.59 74.53 195.59 7.89 203.8 7.89 212.21 39.91 214.71 49.91 214.71 7.89 222.51 7.89 222.51 74.53 215.61 74.53" style="fill:#8c827a"/>
   <path d="M242.92,74.53H229.71V7.89h13.21c7.51,0,12.21,4.6,12.21,13.91v39c0,9.41-4.7,13.71-12.21,13.71m3.4-53c0-3.61-1.1-5.31-3.9-5.31h-3.9V66.32h3.9c2.8,0,3.9-1.7,3.9-5.3Z" style="fill:#8c827a"/>
   <path d="M273.14,75.53c-7.91,0-12.71-5.2-12.71-13.61v-7.2h8v7.5c0,3.5,1.5,5.6,4.4,5.6,3.1,0,4.6-2,4.6-5.3,0-6.2-2.4-11.2-7-18-4.31-6.1-9.61-15.11-9.61-22.81,0-8.41,4.1-14.81,12.81-14.81,7.2,0,11.91,5.2,11.91,13.61v7.6h-7.91V20.2c0-3.31-1.4-5.31-4-5.31s-4.3,1.7-4.3,4.81c0,7.4,2.5,10.9,7.5,18.51s9.11,15,9.11,22.71c0,10.51-6.41,14.61-12.81,14.61" style="fill:#8c827a"/>
   <polygon points="310.62 60.47 302.15 67.91 300.74 69.06 310.62 69.06 310.62 73.57 294.21 73.57 294.21 69.41 302.71 62.09 304.12 60.96 294.21 60.96 294.21 56.45 310.62 56.45 310.62 60.47" style="fill:#8c827a"/>
   <polygon points="304.12 37.67 310.62 37.67 310.62 42.45 304.12 42.45 294.21 49.72 294.21 44.4 300.89 39.84 294.21 35.48 294.21 30.38 304.12 37.67" style="fill:#8c827a"/>
   <path d="M299.63,10.46a6.37,6.37,0,0,0-2.31,5c0,3,1.85,4.77,4.24,4.77h1.79c2.37,0,4.19-1.77,4.19-4.85a6.36,6.36,0,0,0-2.34-4.95l2.24-2.66a9.54,9.54,0,0,1,3.72,8c0,5.74-3.52,9.36-7.83,9.36h-1.75c-4.34,0-7.91-3.74-7.91-9.41,0-3.67,1.7-6.72,3.75-8Z" style="fill:#8c827a"/>
  </g>
  <g style="clip-path:url(#c)">
   <rect width="91.78" height="67.51" style="fill:#8c827a" x="8.28" y="7.05"/>
   <polygon points="78.06 36.45 58.2 24.64 36.81 36.48 36.78 38.66 40.02 38.66 40.02 76.79 75.14 76.79 75.14 38.66 78.06 38.66 78.06 36.45" style="fill:#231f20"/>
  </g>
  <g style="clip-path:url(#a)">
   <rect width="3.92" height="6.25" style="fill:#fff" x="55.86" y="40.04"/>
   <rect width="3.92" height="6.26" style="fill:#fff" x="55.88" y="53.31"/>
   <rect width="3.92" height="6.25" style="fill:#fff" x="46.76" y="40.09"/>
   <rect width="3.92" height="6.26" style="fill:#fff" x="46.77" y="53.36"/>
   <rect width="3.92" height="6.25" style="fill:#fff" x="64.87" y="40.09"/>
   <rect width="3.92" height="6.26" style="fill:#fff" x="64.88" y="53.36"/>
   <rect width="3.92" height="6.24" style="fill:#fff" x="46.76" y="66.51"/>
   <rect width="3.92" height="6.24" style="fill:#fff" x="64.87" y="66.51"/>
  </g>
  <g style="clip-path:url(#c)">
   <path d="M62,36.14a.18.18,0,0,1-.07.16H53.77a.31.31,0,0,1,0-.16,4.14,4.14,0,0,1,8.28,0" style="fill:#fff"/>
   <path d="M57.77,62.25h0c-2.2,0-3.61,2.7-3.61,2.7h1.33v9.53h4.59V65h1.33S60,62.2,57.77,62.25" style="fill:#fff"/>
  </g>
  <g style="clip-path:url(#a)">
   <path d="M32.81,28.45c-.64-1.28.12-3.83,2.66-5.25s4.44-3.26,5.58-3.4,2,1.42,2.67.85,1-1.14,1.65-.57,2.28,1.28,2.41.43.63-3.41,2.66-3.12a3.54,3.54,0,0,1,3.3,3.54c.13,2,1.14,2,1.65,2s-.13,1.87-.13,1.87L46.89,30s-1.4-3.51-2.16-2.94,0,1.7-1.52.71-3.55.42-4.19.42a47.9,47.9,0,0,1-5,.29c-1.14-.14-1.26,0-1.26,0" style="fill:#fff"/>
  </g>
  <g style="clip-path:url(#c)">
   <path d="M27.44,31.69c.61-1.1-.25-2-.62-3.47s2.82-4.66,3.19-5.15-1.54-.88-1.84-2.58c-.21-1.17-.81-5.39-1.84-7.35-.79-1.51-1.71-1.6-1.71-1.6s1.35,3.56,2,5.15a26.18,26.18,0,0,1,.73,7.24c-.12,1-.73,1.34-1.22,2.32s-1.23-3.3-1.72-5-3.06-3.43-2.57-2.58S25.35,29.44,26,30.79Z" style="fill:#fff"/>
   <path d="M.19,23.51a3.09,3.09,0,0,1,1.47-3.92c2.09-1,4.54-1.1,5-1.59s2.7-1.23,3.31-.74.12,2,1,2.09,1.59-.86,3.31,0,1.22,1.47,2.2,1.47,1.23-.13,3.19-.13a55.64,55.64,0,0,0,6.5-1c1.1-.12,4.41-.12,5.52.37s1.83,3.07.49,3.68-2.33,1.35-3.19.86-1.1-1-1.72-1.23S23.85,24.49,23,25a10,10,0,0,1-4.17,1c-1-.13-.85,0-1.71.49a51.31,51.31,0,0,0-4.66,2.82c-1.1.85-3.8,1.83-4.54.61S8,26.7,6.2,26.33s-3.68-.61-4.66-1.22a3.62,3.62,0,0,1-1.35-1.6" style="fill:#fff"/>
   <path d="M19.84,33.49a12.55,12.55,0,0,0-3.19-4.91,10.9,10.9,0,0,1-2.21-3.31c-.49-1,1.23-.61,1.47.49s2.33,3.56,2.46,3.07-.13-5.15-.13-5.15,1.23.12,1.23.74.73,4.41.86,5.51a4.05,4.05,0,0,0,.86,2Z" style="fill:#fff"/>
   <path d="M12,47.42c-.64-.37-3-.62-5.82-2.21S2.65,43.5,3,43s-1.51-.5-.38-1.72,1.9-1.1,3-1.47S7.84,38,6.57,38s-2.4.24-1.39-1,5.06-4,6.57-3.68,6.32-.61,7-1,4.05-1.1,5.06-1.59,5.43-.13,6.82.12,1,.61,1,1.47-.76.49,0,.86,2.15,1,1.77,1.59a4.52,4.52,0,0,1-1.64,1.35c-.76.49-2.15,1.47-2.53,1.23s.13,2,0,2.82a4.47,4.47,0,0,1-2.27,2.45c-.76.24-1.9-.37-2.91-.25a5.15,5.15,0,0,0-2.78,1.47,35.12,35.12,0,0,1-6.7,3.56,16.76,16.76,0,0,1-2.52,0" style="fill:#fff"/>
   <path d="M32.68,74.88s-.37.36,1.34.73,15.08,1.72,21.09,2.21S76,77,78.52,77.33,89.43,79,89.43,79s-75.14.25-76.37-.12,4-1.47,5.4-1.72,7,.25,6.74-3.18S22.5,54.4,23.73,47.66s3.06-7.35,4.78-9.68c0,0,4.17-6.25,5.51-7.85s0-13.6-.24-14.71c-.07-.33-1-3.49-1.1-4.17-.23-1.56.36-1,.36-1s3,9.18,2.82,13.37c-.24,4.78.74,4,.74,4s2.33-3.19,2.82-4,1.71-2,1.22-.86S35,31.24,34.51,32.22s-4.73,8.88-5.39,12.26a44.17,44.17,0,0,0,0,16.05,144.66,144.66,0,0,0,3.56,14.35" style="fill:#fff"/>
   <path d="M14.57,43.17s2.45,6.5,4.16,8.09,5.64,5.39,5.64,5.39l.74-4.29s-4.42-1-4.29-2.82,0-3.8,1.1-4.78,1.59-1.34,1.84-2.94a4,4,0,0,0-.37-2.57A3.24,3.24,0,0,1,23,41.7c-.73.86-1.71,2.82-1.83,1.47s.12-5.27.12-5.27a15.94,15.94,0,0,0-1.11,3.43c0,.86-.12,5.76-.49,6.38s-2.08-1.11-2.82-3a2.24,2.24,0,0,0-2.32-1.59" style="fill:#fff"/>
   <path d="M19.8,10.68c.62-.83,3.31-.83,3.56-1.65S23.48,7,24.71,7.1s2,.82,2.45,0,1-2.89,2.08-2.48,2.7-.14,3.8.83,1.72,1.79,2.7,1.79,4.54-1,4.78.13.12,2.07-.86,2.35a28.64,28.64,0,0,0-4.41,2.2,4.41,4.41,0,0,1-2.33,1.51c-1.59.42-3.68.42-7.48-.55s-2-.69-3.8-1-1.84-1.24-1.84-1.24" style="fill:#fff"/>
   <path d="M16.25,18.24c-.61-.73-1.23-.86-.74-1.59s-.24-2,2.21-2,2.57-1,4.66-.37a14.08,14.08,0,0,0,4.53.74,10.47,10.47,0,0,1,4.3.24c1,.49,4.78-.12,5-.86s-.12-1.71,1.23-2.69,8.21-2.7,10.17-2.33.12,2,2.58,2.45,5.27,2.08,4.16,2.94a7.57,7.57,0,0,1-5,1c-1-.37-4.05.25-3.31.74s.86.61.24,1.22-3.31,1.47-4.17.49-.61-.49-1.83-.36-3.93,2.45-5.77,1.83-5.76-2.57-6.86-2.33-3.56,1.6-5.27,1.84-2.82.74-4.05.13-2.08-1.11-2.08-1.11" style="fill:#fff"/>
   <rect width="17.98" height="1.45" style="fill:#fff" x="59.56" y="73.96"/>
   <polygon points="103.26 37.14 103.26 36.87 102.73 36.87 69.5 19.55 36.85 36.87 35.75 36.87 35.75 37.45 35.75 84.16 103.26 84.16 103.26 37.14" style="fill:#d7282f"/>
   <polygon points="103.26 37.14 103.26 36.87 102.73 36.87 69.5 19.55 36.85 36.87 35.75 36.87 35.75 37.45 35.75 84.16 103.26 84.16 103.26 37.14" style="fill:none;stroke:#d7282f;stroke-width:0.161153450953px"/>
  </g>
  <g style="clip-path:url(#a)">
   <path d="M74.45,33a1.57,1.57,0,0,1,0,.22l-9.61,0V33a4.82,4.82,0,1,1,9.62,0" style="fill:#fff"/>
   <path d="M74.45,33a1.57,1.57,0,0,1,0,.22l-9.61,0V33a4.82,4.82,0,1,1,9.62,0Z" style="fill:none;stroke:#fff;stroke-width:0.161153450953px"/>
  </g>
  <g style="clip-path:url(#c)">
   <polygon points="35.13 38.37 35.13 36.57 31.91 36.58 31.85 36.34 69.49 16.37 69.49 16.21 69.63 16.3 69.75 16.24 69.75 16.36 107.39 36.34 107.33 36.58 104.11 36.57 104.11 38.37 96.15 38.37 96.12 35.37 99.51 35.37 69.62 19.61 39.73 35.36 43.12 35.36 43.1 38.37 35.13 38.37" style="fill:#fff"/>
   <path d="M69.63,16.44h0l37.7,20H104v1.8H96.28l0-2.75H100l-30.41-16-30.41,16H43l0,2.75H35.26v-1.8H31.91l37.71-20h0ZM69.36,16v.31L31.79,36.23l.12.48H35v1.8h8.23v-.26l0-2.75v-.26h-3L69.62,19.76,99,35.24H96v.26l0,2.74v.26h8.22V36.7h3.09l.12-.48L69.88,16.29V16l-.24.11Z" style="fill:#fff"/>
   <rect width="5.75" height="13.27" style="fill:#fff" x="46.14" y="41.1"/>
   <rect width="5.75" height="13.27" style="fill:#fff" x="46.08" y="62.02"/>
  </g>
  <g style="clip-path:url(#a)">
   <rect width="9.3" height="13.83" style="fill:#fff" x="65.08" y="40.82"/>
  </g>
  <g style="clip-path:url(#c)">
   <rect width="19.2" height="1.55" style="fill:#fff" x="60.09" y="62.24"/>
   <rect width="1.71" height="15.38" style="fill:#fff" x="60.58" y="62.7"/>
   <rect width="1.71" height="15.39" style="fill:#fff" x="77.07" y="62.62"/>
   <rect width="1.71" height="15.39" style="fill:#fff" x="64.12" y="62.42"/>
   <rect width="1.71" height="15.39" style="fill:#fff" x="73.42" y="62.63"/>
  </g>
  <g style="clip-path:url(#a)">
   <polygon points="69.76 55.92 81.13 61.45 58.13 61.47 69.76 55.92" style="fill:#fff"/>
   <line x1="69.76" x2="69.76" style="fill:none;stroke:#d7282f;stroke-width:0.403400145889599px" y1="27.13" y2="54.8"/>
   <line x1="65.79" x2="69.49" style="fill:#d7282f" y1="28.52" y2="34.7"/>
   <line x1="65.79" x2="69.49" style="fill:none;stroke:#d7282f;stroke-width:0.403400145889599px" y1="28.52" y2="34.7"/>
   <line x1="44.45" x2="77.43" style="fill:none;stroke:#d7282f;stroke-width:0.403400145889599px" y1="47.68" y2="47.68"/>
   <line x1="73.4" x2="70.28" style="fill:#d7282f" y1="29.06" y2="34.29"/>
   <line x1="73.4" x2="70.28" style="fill:none;stroke:#d7282f;stroke-width:0.403400145889599px" y1="29.06" y2="34.29"/>
  </g>
  <g style="clip-path:url(#c)">
   <line x1="49.01" x2="49.01" style="fill:none;stroke:#d7282f;stroke-width:0.403400145889599px" y1="77.01" y2="37.99"/>
  </g>
  <g style="clip-path:url(#a)">
   <line x1="42.63" x2="54.89" style="fill:none;stroke:#d7282f;stroke-width:0.403400145889599px" y1="68.72" y2="68.72"/>
   <path d="M167.45,79.48c0-.4-.25-.61-.39-.57-6.06,1.92-16.53,7.76-16.53,18.92,0,4.09,2.63,6.12,5.16,6.12,4.53,0,8.38-4.52,8.38-8.83,0-3.42-2-5.49-4.39-5.49A4.93,4.93,0,0,0,156.87,91a.47.47,0,0,0,0,.57c.17.21.39.32.53.21a2.62,2.62,0,0,1,1.53-.46c1.14,0,2,.71,2,2.92,0,4.88-2.53,8.62-4.84,8.62-1.46,0-2.43-1.1-2.43-3.67,0-11.4,7.84-16.67,13.51-19.27a.41.41,0,0,0,.21-.39M145.11,98.07c0,2.71-1.75,4.74-4,4.74-1.63,0-3-1.39-3-4.13s1.93-4.88,4.6-6.45c1.21,2,2.42,3.74,2.42,5.84m3.49-14.85A7.08,7.08,0,0,1,145,89.45c-1.07-1.92-2.5-4-2.5-6.06a3.33,3.33,0,0,1,3.32-3.34c1.74,0,2.81,1.35,2.81,3.17m2.46.57a5,5,0,0,0-5-4.88,6.41,6.41,0,0,0-6.49,6.34c0,2.1,1.21,4,2.53,6-3.45,1.93-6.7,4.21-6.7,7.52a5.12,5.12,0,0,0,5.31,5.2A7.58,7.58,0,0,0,148,96.61c0-2-1.17-4.06-2.46-6.12,3.07-1.71,5.56-3.64,5.56-6.7m-13.4,3.77c0-.28-.1-.35-.32-.32a32.93,32.93,0,0,1-5.41.22,31.84,31.84,0,0,1-5.49-.25,44.45,44.45,0,0,1-1.64,5.09.41.41,0,0,0,.46.32.55.55,0,0,0,.54-.28,3.2,3.2,0,0,1,3.24-2h5.59l-12.11,20.27c-.14.25.11.57.71.57a1.31,1.31,0,0,0,1.11-.46l13.25-23s.07-.15.07-.22m-12.72.29c0-.29-.07-.36-.18-.36-1.49,0-2.92.22-4.63.22s-3.28-.22-4.77-.22c-.22,0-.39.39-.39.71,0,.15,0,.29.17.29,1.57.21,2.74.21,2.74,1.53a5.63,5.63,0,0,1-.21,1.36l-2,8.19c-.6,2.67-1.53,2.6-3.63,2.85-.25,0-.43.36-.43.68s.07.32.18.32c1.5,0,2.92-.21,4.63-.21s3.28.21,4.78.21c.21,0,.39-.36.39-.68s0-.28-.18-.32c-1.57-.18-2.74-.21-2.74-1.49a5.87,5.87,0,0,1,.21-1.36l2-8.19c.61-2.68,1.53-2.64,3.63-2.89.25,0,.43-.36.43-.64" style="fill:#8c827a"/>
   <polygon points="179.09 97.8 177.21 93.38 176.43 94.73 176.43 97.8 175.03 97.8 175.03 87.9 176.43 87.9 176.43 92.71 179.12 87.9 180.62 87.9 178.12 92.15 180.62 97.8 179.09 97.8" style="fill:#8c827a"/>
   <rect width="1.41" height="9.89" style="fill:#8c827a" x="182.35" y="87.9"/>
   <polygon points="190.71 97.8 188.25 92.98 187.42 91.24 187.42 97.8 186.09 97.8 186.09 87.9 187.23 87.9 189.58 92.8 190.36 94.54 190.36 87.9 191.7 87.9 191.7 97.8 190.71 97.8" style="fill:#8c827a"/>
   <path d="M196.83,97.79H194V87.9h2.8a2.42,2.42,0,0,1,2.64,2.67v4.55a2.42,2.42,0,0,1-2.64,2.67m1.24-7.14c0-.94-.41-1.46-1.33-1.46h-1.3V96.5h1.3c.92,0,1.33-.52,1.33-1.44Z" style="fill:#8c827a"/>
   <polygon points="201.69 97.8 201.69 87.9 206.29 87.9 206.29 89.18 203.08 89.18 203.08 92 205.4 92 205.4 93.22 203.08 93.22 203.08 96.52 206.29 96.52 206.29 97.8 201.69 97.8" style="fill:#8c827a"/>
   <path d="M213.6,97.9c-1.11,0-1.5-.31-1.5-1.34V94.63c0-.68-.31-1.14-1-1.14h-1.4v4.3h-1.41V87.9h2.86c1.61,0,2.32.8,2.32,2.21V91.2c0,1-.32,1.54-1.27,1.74a1.6,1.6,0,0,1,1.32,1.72v1.8c0,.26.12.38.41.38V97.9ZM212,90.08c0-.56-.24-1-.91-1h-1.45v3.3H211c.68,0,1-.39,1-1.13Z" style="fill:#8c827a"/>
   <path d="M220.35,97.79l-.27-.75a2.05,2.05,0,0,1-1.93,1,2.46,2.46,0,0,1-2.57-2.72V90.4a2.56,2.56,0,0,1,2.76-2.71A2.41,2.41,0,0,1,221,90.4V91h-1.34v-.75a1.21,1.21,0,0,0-1.31-1.29A1.27,1.27,0,0,0,217,90.26v5.17a1.36,1.36,0,0,0,2.72,0V93.9h-1.32V92.71h2.66v5.08Z" style="fill:#8c827a"/>
   <path d="M227,97.79l-.52-2.42h-2.14l-.52,2.42h-1.36l2.24-9.89h1.49l2.24,9.89Zm-1.59-7.68-.81,4.06h1.63Z" style="fill:#8c827a"/>
   <path d="M235.46,97.9c-1.12,0-1.5-.31-1.5-1.34V94.63c0-.68-.32-1.14-1-1.14h-1.39v4.3h-1.42V87.9H233c1.61,0,2.32.8,2.32,2.21V91.2c0,1-.33,1.54-1.28,1.74a1.59,1.59,0,0,1,1.32,1.72v1.8c0,.26.12.38.42.38V97.9Zm-1.56-7.82c0-.56-.24-1-.91-1h-1.45v3.3h1.3c.69,0,1.06-.39,1.06-1.13Z" style="fill:#8c827a"/>
   <polygon points="240.39 89.19 240.39 97.8 238.98 97.8 238.98 89.19 236.94 89.19 236.94 87.9 242.41 87.9 242.41 89.19 240.39 89.19" style="fill:#8c827a"/>
   <polygon points="244.15 97.8 244.15 87.9 248.75 87.9 248.75 89.18 245.55 89.18 245.55 92 247.86 92 247.86 93.22 245.55 93.22 245.55 96.52 248.75 96.52 248.75 97.8 244.15 97.8" style="fill:#8c827a"/>
   <polygon points="255.34 97.8 252.88 92.98 252.05 91.24 252.05 97.8 250.72 97.8 250.72 87.9 251.86 87.9 254.21 92.8 255 94.54 255 87.9 256.33 87.9 256.33 97.8 255.34 97.8" style="fill:#8c827a"/>
   <rect width="3.12" height="1.13" style="fill:#8c827a" x="258.32" y="92.67"/>
   <path d="M268.09,97.79l-.27-.75a2.05,2.05,0,0,1-1.93,1,2.46,2.46,0,0,1-2.57-2.72V90.4a2.56,2.56,0,0,1,2.76-2.71,2.41,2.41,0,0,1,2.64,2.71V91h-1.33v-.75a1.21,1.21,0,0,0-1.31-1.29,1.27,1.27,0,0,0-1.35,1.32v5.17a1.26,1.26,0,0,0,1.35,1.34,1.28,1.28,0,0,0,1.37-1.34V93.9h-1.33V92.71h2.66v5.08Z" style="fill:#8c827a"/>
   <path d="M276.26,97.9c-1.12,0-1.5-.31-1.5-1.34V94.63c0-.68-.32-1.14-1-1.14h-1.4v4.3h-1.41V87.9h2.87c1.61,0,2.32.8,2.32,2.21V91.2c0,1-.33,1.54-1.28,1.74a1.59,1.59,0,0,1,1.32,1.72v1.8c0,.26.12.38.42.38V97.9Zm-1.56-7.82c0-.56-.24-1-.91-1h-1.46v3.3h1.31a1,1,0,0,0,1.06-1.13Z" style="fill:#8c827a"/>
   <path d="M282.21,97.79l-.52-2.42h-2.13L279,97.79h-1.37l2.24-9.89h1.49l2.24,9.89Zm-1.59-7.68-.81,4.06h1.63Z" style="fill:#8c827a"/>
   <path d="M288.1,97.79h-2.79V87.9h2.79a2.42,2.42,0,0,1,2.64,2.67v4.55a2.42,2.42,0,0,1-2.64,2.67m1.25-7.14c0-.94-.42-1.46-1.34-1.46h-1.29V96.5H288c.92,0,1.34-.52,1.34-1.44Z" style="fill:#8c827a"/>
   <polygon points="292.96 97.8 292.96 87.9 297.56 87.9 297.56 89.18 294.35 89.18 294.35 92 296.67 92 296.67 93.22 294.35 93.22 294.35 96.52 297.56 96.52 297.56 97.8 292.96 97.8" style="fill:#8c827a"/>
   <path d="M302.93,97.79V88.54a.59.59,0,0,0,.64-.64h.69v9.89Z" style="fill:#8c827a"/>
   <path d="M309.23,93.84a4,4,0,0,0-1.39,2.68h3.58v1.27h-5v-.53c0-1.41.31-2.5,2.08-4.29,1.2-1.13,1.74-1.86,1.74-2.84a1.14,1.14,0,0,0-1.22-1.29c-.86,0-1.24.49-1.24,1.33v.91h-1.18v-.92a2.44,2.44,0,1,1,4.88,0c0,1.32-.83,2.46-2.28,3.65" style="fill:#8c827a"/>
  </g>
 </g>
</svg>
